<?xml version="1.0" encoding="UTF-8" standalone="no"?>
<svg width="376px" height="98px" viewBox="0 0 376 98" version="1.1" xmlns="http://www.w3.org/2000/svg" xmlns:xlink="http://www.w3.org/1999/xlink">
    <!-- Generator: Sketch 3.7.1 (28215) - http://www.bohemiancoding.com/sketch -->
    <title>ubiqua-logo</title>
    <desc>Created with Sketch.</desc>
    <defs></defs>
    <g id="COVER" stroke="none" stroke-width="1" fill="none" fill-rule="evenodd">
        <g id="PORTADA" transform="translate(-128.000000, -189.000000)">
            <g id="ubiqua-logo" transform="translate(128.000000, 178.000000)">
                <text id="ubiqua" font-family="Ubuntu-Medium, Ubuntu" font-size="90" font-weight="400" fill="#F2823E">
                    <tspan x="97" y="84">ubiqua</tspan>
                </text>
                <g id="icon" transform="translate(0.000000, 11.000000)">
                    <path d="M76.6929405,57.4045138 C76.6929405,62.8249276 72.8636523,69.4754103 68.1835982,72.1856172 L53.7997604,80.5139276 C49.1197063,83.2224448 41.4628144,83.2224448 36.784445,80.5122379 L22.4073459,72.1873069 C17.7289766,69.4771 13.901373,62.8249276 13.901373,57.4045138 L13.901373,40.7546517 C13.901373,35.3359276 17.7289766,28.6837552 22.4073459,25.9735483 L36.784445,17.6486172 C41.4628144,14.9384103 49.1197063,14.9384103 53.7997604,17.6469276 L68.1835982,25.9752379 C72.8653369,28.6837552 76.6929405,35.3359276 76.6929405,40.7546517 L76.6929405,57.4045138 L76.6929405,57.4045138 Z M53.8048144,2.25754828 C49.126445,-0.452658621 41.4678685,-0.452658621 36.7861297,2.25754828 L9.12023784,18.2788586 C4.4384991,20.9890655 0.610895495,27.6412379 0.610895495,33.0599621 L0.610895495,65.1008931 C0.610895495,70.5196172 4.4384991,77.1717897 9.12023784,79.8819966 L36.7861297,95.9016172 C41.4661838,98.6118241 49.126445,98.6118241 53.8048144,95.9016172 L81.4740757,79.8819966 C86.152445,77.1717897 89.983418,70.5196172 89.983418,65.1008931 L89.983418,33.0599621 C89.983418,27.6412379 86.152445,20.9890655 81.4740757,18.2788586 L53.8048144,2.25754828 L53.8048144,2.25754828 Z" id="Fill-46" fill="#F2823E"></path>
                    <path d="M53.7999288,80.5135897 C49.1198748,83.2237966 41.4629829,83.2221069 36.7829288,80.5119 L22.4075144,72.186969 C17.729145,69.4767621 13.8998568,62.8245897 13.8998568,57.4041759 L13.8998568,40.7560034 C13.8998568,35.3355897 17.729145,28.6834172 22.4075144,25.9732103 L36.7829288,17.6482793 C41.4629829,14.9380724 49.1198748,14.9380724 53.7999288,17.6465897 L68.1837667,25.9749 C72.8638207,28.6851069 76.693109,35.3355897 76.693109,40.7560034 L76.693109,57.4041759 C76.693109,62.8245897 72.862136,69.4750724 68.1837667,72.1852793 L53.7999288,80.5135897 Z M72.3702081,18.2802103 C69.6208027,13.6150724 62.9494514,9.84376207 57.5449829,9.89952069 L32.2342802,10.1631069 C26.8298117,10.2188655 20.2393252,14.1287276 17.5859468,18.8513138 L5.16308198,40.9621414 C2.5097036,45.6847276 2.59056847,53.3659 5.33828919,58.0310379 L18.2177036,79.879969 C20.967109,84.5467966 27.6384604,88.3181069 33.0429288,88.2606586 L58.3502622,87.9953828 C63.7547306,87.9396241 70.3469018,84.0297621 73.0002802,79.3088655 L85.4281991,57.1963483 C88.0832622,52.4754517 88.004082,44.795969 85.2529919,40.130831 L72.3702081,18.2802103 Z" id="Fill-57" fill="#004274"></path>
                </g>
            </g>
        </g>
    </g>
</svg>